<svg version="1" xmlns="http://www.w3.org/2000/svg" width="933.333" height="933.333" viewBox="0 0 700.000000 700.000000"><path d="M549.9 1.4c-.2.2-5.5.7-11.7 1.1-6.2.3-12.1.8-13 1-.9.1-5.3.6-9.7.9-4.4.4-8.7.9-9.5 1.1-.8.2-4.6.7-8.5 1-3.8.4-7.2.8-7.5 1-.3.1-3.9.6-7.9.9-4.1.4-7.7.9-8 1.1-.4.2-4.2.6-8.6 1-4.4.4-8.2.9-8.5 1-.3.2-3.7.6-7.5 1-3.9.3-7.7.8-8.5 1-.8.2-4 .7-7 1-3 .3-6.6.8-8 1-1.4.2-5 .7-8 1-3 .3-6.2.8-7 1-.8.2-4 .7-7 1-3 .3-6.6.8-8 1-1.4.2-4.9.7-7.9 1-3 .4-6.1.8-7 1-.9.1-5 .6-9.1 1s-8.2.8-9 1c-.8.2-5.5.6-10.5 1-4.9.4-9.3.9-9.6 1.1-.3.2-1.7-.8-3-2.3-4.7-5.1-13.8-11.1-18.7-12.2-2.7-.7-8.4-1.3-12.8-1.4-6.6-.1-8.4.2-10.9 1.9-1.7 1.2-3.6 2.3-4.4 2.6-.8.2-3.5 4.7-6 9.8-3.9 8.1-5 9.5-7.1 9.6-8.3.4-26.5 1.6-28.8 1.9-1.5.2-6.5.6-11.2 1-10.2.7-21.9 1.9-30 3-5.3.7-12.8 1.5-34.5 3.5-19.5 1.8-20.7 1.9-28.5 2.5-4.1.3-10.2.7-13.5 1.1-24 2.2-45.3 2.9-82.8 2.8H13.9l-.5 2.5c-2.1 10-3.2 13.1-6 16.8C2.2 75.5.6 81.8 1.3 92.4c1 14.8 2.8 21.8 11.3 44.3 6.3 16.5 7.7 21.9 7.5 28.9l-.1 5.1 5.8 1.7c6.2 1.7 8 3.2 14.8 12.4 4.7 6.5 11.4 10.2 22.9 12.8 1.7.4 15.6.9 31 1.1 21.6.3 29.4.1 34-.9 3.9-.9 13.1-1.5 26-1.6 14.8-.1 21.4-.6 25.5-1.8 3.4-.9 10.5-1.7 18.5-1.8 7.2-.2 15.1-.8 17.7-1.4 7.2-1.8 23.4-3.4 25-2.6 1 .6-1.7 8.6-5.8 17.2-12.1 25.5-16.9 38.6-17.8 48.2-.4 4.3-1 5.8-2.8 7-1.3.8-5.3 4.4-8.9 8-5.3 5.3-6.8 7.5-7.8 11.5-3.6 14.7-12.8 41.2-24.7 71.3-11.9 30.3-13.2 33.6-18.3 47.7-21.2 58.9-26.2 83.7-26.4 131.7-.1 14 .1 14.9 2.5 19.5 2.4 4.4 7.8 21.9 10.8 35.3 2.7 11.9 9.2 27.8 14.4 35.2.9 1.2 1.2 4 .9 8.1l-.4 6.2 10.3 5.2c5.7 2.8 12.5 5.9 15.2 6.9 2.6 1.1 6.7 3.8 9 6 2.3 2.3 5.9 4.9 7.9 5.8 2 .9 5.4 2.3 7.5 3.2 2 .9 5.8 3.6 8.3 6.1l4.6 4.4 10.8.3c23.1.6 39.6-5.1 51.5-17.7 4.6-4.9 10.6-16.5 11.4-22.2.3-2.2.9-5.8 1.2-8 .3-2.2.3-7.7-.1-12.2-.6-7.7-1-8.6-4.7-13.3-2.8-3.5-5.8-5.8-10.4-8-3.5-1.7-6.4-3.5-6.4-3.9 0-.5-2.1-1.8-4.6-3-2.7-1.3-5.2-3.4-6.2-5.3-.9-1.7-3.5-5.8-5.7-9.2-4.8-7.3-5-10.8-1.7-25.7 1.1-5.3 2.3-12.1 2.5-15 .2-3 .9-6.5 1.6-7.7 1.9-3.6 4-11.5 3.7-13.7-.2-1.1.8-4.9 2.1-8.5 5.1-13.6 8.2-22.8 8.7-25.3.2-1.4 1.6-4.3 3-6.4 1.4-2.1 2.6-4.3 2.6-4.9 0-.6 1.7-3.1 3.8-5.5 2.7-3.1 4.4-6.4 5.6-10.9 3.8-14.1 14-42.9 17.7-49.9 2.2-4 6-10 8.4-13.2 2.7-3.6 5-8 6-11.6 2.4-8.8 2.2-8.1 6.7-19.3 3.5-8.8 8.7-18.6 15.7-29.9 2.8-4.5 6-11.4 7.1-15.4 5.7-19.4 12.6-37.3 27-70.2 7.9-18.2 15.7-37.3 26.5-65.3 1.6-3.9 3.2-7.3 3.7-7.3.4-.1 1.1-.2 1.6-.3.4-.2 4.3-.6 8.7-1.1 4.4-.5 8.2-.9 8.5-1 .3-.1 3.9-.5 8-.9 7.5-.8 8.8-1 17-2 4.3-.6 16-1.9 26.5-3.1 2.8-.3 6.1-.8 7.5-1 1.4-.2 4.5-.6 7-1s5.7-.8 7.3-1.1c6.6-1 8.5-1.3 14.2-1.9 3.3-.4 6.9-.9 8-1 1.1-.2 4.7-.6 8-1 3.3-.3 7.1-.8 8.5-1.1 1.4-.2 5.7-.6 9.5-1 3.9-.3 8.1-.7 9.5-1 5.4-.9 28.6-1.7 49-1.6 22.7 0 25.4-.4 36.6-5.4 9.7-4.3 13.4-5.1 25.7-5.3l8.2-.2 4.2-5.5c2.3-3 6.1-7 8.5-8.8 6.6-5 9.1-11.1 9.6-22.6.6-16.6-3.2-28.8-12.6-40-5.9-7-16.7-17.7-22.9-22.6-5.3-4.2-17.5-16.5-21-21.2-4.1-5.4-10.7-9-18.1-9.8-3.7-.4-8-.9-9.7-1.1-3.9-.6-64.1-1.4-64.6-.9z"/></svg>