<?xml version="1.0" standalone="no"?>
<!DOCTYPE svg PUBLIC "-//W3C//DTD SVG 20010904//EN"
 "http://www.w3.org/TR/2001/REC-SVG-20010904/DTD/svg10.dtd">
<svg version="1.0" xmlns="http://www.w3.org/2000/svg"
 width="700.000000pt" height="700.000000pt" viewBox="0 0 700.000000 700.000000"
 preserveAspectRatio="xMidYMid meet">
<metadata>
Created by potrace 1.11, written by Peter Selinger 2001-2013
</metadata>
<g transform="translate(0.000000,700.000000) scale(0.100000,-0.100000)"
fill="#000000" stroke="none">
<path d="M1047 6884 c-1 -1 -51 -5 -112 -8 -60 -4 -121 -8 -135 -10 -14 -2
-47 -7 -74 -11 -56 -8 -139 -64 -169 -115 -21 -36 -105 -117 -215 -210 -111
-93 -238 -235 -273 -306 -43 -87 -57 -160 -55 -288 2 -132 14 -161 104 -246
32 -30 72 -72 89 -94 l31 -39 104 -3 c79 -2 118 -9 168 -28 224 -84 170 -76
525 -80 176 -2 331 -6 345 -9 14 -3 62 -8 107 -12 45 -3 90 -7 100 -9 10 -2
48 -7 84 -10 36 -4 76 -8 90 -11 13 -2 47 -6 74 -10 28 -3 95 -12 150 -20 185
-26 202 -28 300 -39 28 -3 61 -8 75 -10 14 -3 56 -7 93 -11 37 -3 76 -8 85
-10 9 -1 46 -6 82 -10 36 -3 79 -8 95 -10 17 -2 55 -6 85 -9 123 -14 131 -17
141 -44 5 -15 14 -36 19 -47 5 -11 48 -118 94 -237 47 -119 94 -236 105 -260
17 -38 99 -226 136 -313 88 -206 139 -344 191 -513 24 -80 48 -134 81 -185 97
-148 197 -374 228 -512 4 -16 7 -32 8 -35 0 -3 9 -14 20 -25 29 -31 91 -124
120 -181 29 -57 136 -362 168 -479 12 -46 30 -85 47 -103 15 -16 34 -42 42
-58 8 -16 22 -40 31 -54 10 -14 25 -52 34 -85 10 -33 37 -112 60 -175 24 -63
43 -131 43 -151 0 -19 11 -64 25 -100 14 -35 28 -93 32 -129 3 -36 15 -103 26
-150 30 -127 27 -181 -15 -222 -7 -8 -24 -34 -36 -59 -23 -46 -58 -89 -72 -89
-4 0 -37 -20 -74 -45 -36 -25 -72 -45 -80 -45 -16 0 -73 -53 -98 -92 -20 -31
-27 -77 -28 -175 -1 -209 87 -363 262 -460 44 -25 160 -60 225 -68 63 -8 230
-8 256 0 11 4 38 27 61 51 22 24 47 44 55 44 27 0 139 63 171 97 22 24 64 48
130 75 53 21 104 45 112 52 8 6 34 21 57 32 46 21 52 35 42 101 -5 36 -1 49
31 100 47 74 89 186 129 343 48 185 79 285 105 334 23 43 23 51 20 233 -1 103
-5 213 -8 244 -3 31 -8 83 -11 116 -3 33 -7 68 -9 79 -2 10 -9 53 -16 94 -36
225 -154 582 -388 1181 -143 362 -204 537 -263 753 -12 41 -27 61 -93 122 -44
41 -83 74 -88 74 -4 0 -8 17 -8 38 0 86 -42 203 -174 490 -63 136 -76 181 -55
183 38 3 182 -11 224 -22 22 -6 103 -12 179 -14 93 -3 156 -10 189 -21 38 -13
97 -17 270 -19 139 -2 237 -7 263 -15 30 -9 119 -11 340 -7 164 3 306 7 314 9
8 3 28 8 43 13 91 25 142 66 217 172 24 34 40 45 87 59 32 10 61 20 64 23 4 3
9 42 12 86 5 66 16 108 66 237 56 148 99 282 108 338 2 14 6 68 10 122 6 111
-6 161 -62 242 -19 28 -36 62 -39 76 -4 26 -15 74 -22 101 -4 14 -20 15 -117
12 -247 -10 -658 -4 -887 12 -100 7 -256 19 -370 30 -30 2 -89 7 -130 11 -41
3 -91 7 -110 9 -19 2 -69 6 -110 10 -81 7 -103 9 -225 24 -83 10 -168 19 -248
26 -25 2 -65 6 -89 9 -24 3 -83 8 -133 11 -49 3 -128 8 -175 11 -47 2 -90 10
-96 17 -6 7 -27 47 -47 90 -31 72 -40 82 -87 109 -51 29 -57 30 -146 25 -112
-6 -173 -31 -255 -106 -49 -43 -61 -50 -90 -46 -19 2 -69 6 -111 10 -42 3 -92
8 -110 10 -18 2 -56 7 -84 10 -28 3 -59 7 -70 9 -10 2 -48 7 -84 11 -36 4 -72
9 -80 10 -8 1 -40 6 -70 10 -30 3 -66 8 -80 10 -27 5 -90 13 -160 21 -25 3
-56 7 -70 9 -14 2 -50 7 -80 10 -30 3 -66 8 -80 10 -14 2 -50 7 -80 10 -30 3
-66 8 -80 10 -55 8 -108 15 -160 20 -30 4 -66 8 -80 10 -14 2 -52 7 -85 10
-33 3 -67 8 -75 10 -8 2 -53 7 -99 10 -47 4 -92 8 -100 10 -58 11 -644 28
-654 19z"/>
</g>
</svg>
