<svg xmlns="http://www.w3.org/2000/svg" viewBox="-1 -22 799 799" version="1.1"><path fill="#bc8d02" d="M22 162q-1-8-3.5-14.5T13 133q-5-12-9-26T0 74q2-10 5-14.5t6-7.5l4-18h15q8 1 16.5 1H63q38 0 78-3t82-7q46-6 99-9 5-11 6.5-14l3.5-7 11-6q23-1 32 5.5T389 7q26-2 53-5.5T498-6q40-5 81-10t80-5q17 0 32 1t29 3l12 9q4 7 10 13t14 12q15 12 29.5 30t10.5 53l-5 10q-4 4-10 8l-10 13h-11q-10 0-15 1.5t-12 4.5q-4 2-9 3.5t-11 3.5q-11-1-17-1h-14q-30 0-65 4t-68 9q-24 3-46 5.5t-40 4.5q-10 26-18 46t-17 40q-9 20-17 40.5T396 338q-12 18-20 34.5T363 410q-15 17-21.5 37T330 481l-4 15q-7 7-8.5 11t-5.5 9q-3 13-8 25-2 5-4 10.5t-1 8.5q-2 11-6 17 0 6-1 12l-2 12q-2 7-3 12.5t1 10.5l6 8 5 10q2 2 5 3t5 3q8 7 15 8l10 12q6 36-11 56-18 23-60 23l-14-1q-7-7-8-9-9-4-15-6.5t-11-9.5q-2-2-5-2.5t-5-2.5q-10-3-16-7l-11-6q1-10 1-14-8-11-12.5-24t-7.5-27q-3-11-5.5-20t-7.5-16q-2-70 13-117.5t33-92.5q10-24 19-49t16-51l11-11q7-6 9-7 0-13 5-25.5t11-25.5q4-8 7.5-16t4.5-14q-7 0-12.5.5T251 195q-13 3-25 3-9 0-13-1-8 4-15 4.5t-14 .5h-24q-12 0-19 3H90q-8 0-18-1.5T51 196l-7-8q-6-11-11-12l-11-3z"/></svg>